# File created by Blade
# Date/Time:  Thu Jan 22 16:25:48 2015
# Frame Rate: 120.000 fps
#------------------------------------------------------
:FULLY-SPECIFIED
:DEGREES
852
root 3.339842 39.754680 7.945251 63.540924 22.738221 53.156560
RightUpLeg -23.308137 -24.064581 -41.576960
RightLeg -10.461518 -0.000000 0.000000
RightFoot -4.543372 -28.236161 15.001161
RightToeBase 13.533796 -0.000000 -0.000000
LeftUpLeg 8.151240 -19.606288 13.038557
LeftLeg 139.646762 -0.000000 -0.000000
LeftFoot 18.986863 15.828948 -30.219948
LeftToeBase 4.254429 -0.000000 -0.000000
Spine 13.574835 -6.072651 -5.892486
RightShoulder -7.453958 -2.458541 -46.216797
RightArm 30.624213 40.480062 25.904035
RightForeArm -3.383220 -0.000000 35.574084
RightHand 6.615778 -0.000000 -16.146605
RightHandThumb1 -24.326973 -0.000000 -32.862282
LeftShoulder -34.498945 36.540934 -15.539369
LeftArm 24.700719 -18.590372 -85.764741
LeftForeArm 46.231621 -0.000000 11.983558
LeftHand -17.237078 -0.000000 -17.336361
LeftHandThumb1 -26.253704 0.000000 33.147579
Head -13.742394 -25.298946 -12.810466
853
root 3.325673 39.742659 7.955907 63.329720 23.010576 53.058273
RightUpLeg -23.079365 -23.942767 -41.336279
RightLeg -10.550402 -0.000000 0.000000
RightFoot -4.616153 -28.223297 15.087565
RightToeBase 13.603622 -0.000000 -0.000000
LeftUpLeg 7.768454 -19.241875 13.117096
LeftLeg 139.938743 -0.000000 -0.000000
LeftFoot 18.968251 15.792878 -30.235159
LeftToeBase 4.299879 -0.000000 -0.000000
Spine 13.605987 -6.014515 -5.851021
RightShoulder -7.135539 -2.882083 -45.735178
RightArm 30.219502 39.756493 26.344876
RightForeArm -3.383550 -0.000000 36.921089
RightHand 6.641508 -0.000000 -16.258862
RightHandThumb1 -24.326973 -0.000000 -32.862282
LeftShoulder -34.407419 36.542846 -15.643173
LeftArm 24.827701 -18.443728 -85.860129
LeftForeArm 45.849384 0.000000 11.937425
LeftHand -17.357978 -0.000000 -17.274672
LeftHandThumb1 -26.253704 0.000000 33.147579
Head -13.737728 -25.447223 -12.722210
854
root 3.310060 39.729772 7.968141 63.098569 23.299337 52.929194
RightUpLeg -22.859110 -23.791883 -41.066060
RightLeg -10.631650 -0.000000 0.000000
RightFoot -4.644177 -28.226912 15.098776
RightToeBase 13.693646 -0.000000 -0.000000
LeftUpLeg 7.397937 -18.901845 13.197887
LeftLeg 140.227119 -0.000000 -0.000000
LeftFoot 18.995198 15.684713 -30.212815
LeftToeBase 4.232136 -0.000000 -0.000000
Spine 13.640582 -5.972048 -5.792297
RightShoulder -6.846880 -3.428858 -45.178138
RightArm 30.048220 39.109697 26.877202
RightForeArm -3.169067 -0.000000 38.202070
RightHand 6.678127 0.000000 -16.227574
RightHandThumb1 -24.326973 -0.000000 -32.862282
LeftShoulder -34.377095 36.575243 -15.791221
LeftArm 24.996164 -18.278916 -85.973352
LeftForeArm 45.486915 -0.000000 11.893107
LeftHand -17.296985 -0.000000 -17.137234
LeftHandThumb1 -26.253704 0.000000 33.147579
Head -13.698695 -25.532993 -12.685733
855
root 3.296087 39.716196 7.983307 62.849172 23.623871 52.801091
RightUpLeg -22.602618 -23.668782 -40.760024
RightLeg -10.726839 -0.000000 0.000000
RightFoot -4.672193 -28.210316 15.142320
RightToeBase 13.729169 -0.000000 -0.000000
LeftUpLeg 7.040009 -18.593336 13.287155
LeftLeg 140.505532 -0.000000 -0.000000
LeftFoot 19.023840 15.618000 -30.294570
LeftToeBase 4.260528 -0.000000 -0.000000
Spine 13.689369 -5.938849 -5.693110
RightShoulder -6.620809 -4.026656 -44.575383
RightArm 30.026118 38.423440 27.447928
RightForeArm -2.946691 -0.000000 39.383505
RightHand 6.996811 -0.000000 -15.849719
RightHandThumb1 -24.326973 -0.000000 -32.862282
LeftShoulder -34.234799 36.575494 -15.923046
LeftArm 25.062874 -18.179016 -86.042379
LeftForeArm 45.099434 -0.000000 11.925379
LeftHand -17.254111 -0.000000 -17.066748
LeftHandThumb1 -26.253704 0.000000 33.147579
Head -13.683300 -25.675328 -12.654136
